<?xml version="1.0" encoding="UTF-8" standalone="no"?>
<svg xmlns:svg="http://www.w3.org/2000/svg" 
   xmlns="http://www.w3.org/2000/svg" viewBox="0 0 564.026 249.94582" width="564.026" height="249.94582"> />
   <g id="g1039" transform="translate(-218,-375.05419)">
      <path style="fill: #00887a" d="m 550.7,427.8 c 5.9,5.7 8.8,14.2 8.8,25.4 v 44 h -22.3 v -40.6 c 0,-6.1 -1.3,-10.6 -4,-13.6 -2.7,-3 -6.5,-4.5 -11.6,-4.5 -5.6,0 -10.1,1.7 -13.4,5.2 -3.3,3.5 -5,8.6 -5,15.5 v 38 h -22.3 v -76.9 h 21.3 v 9 c 3,-3.2 6.6,-5.7 11,-7.5 4.4,-1.8 9.2,-2.6 14.4,-2.6 9.6,0.1 17.3,2.9 23.1,8.6 z m -105.9,69.5 -16.9,-23.6 -17.4,23.6 h -24.3 l 29.6,-38.7 -28.6,-38.2 h 25 l 16.3,22.4 16.7,-22.4 h 23.7 L 440.3,458 470,497.3 Z M 354,406.1 c -2.6,-2.4 -3.9,-5.3 -3.9,-8.9 0,-3.5 1.3,-6.5 3.9,-8.9 2.6,-2.4 5.9,-3.6 10,-3.6 4.1,0 7.4,1.1 10,3.4 2.6,2.3 3.9,5.1 3.9,8.6 0,3.7 -1.3,6.8 -3.9,9.2 -2.6,2.4 -5.9,3.6 -10,3.6 -4.1,0.2 -7.4,-1 -10,-3.4 z m -1.1,14.3 h 22.3 v 76.9 h -22.3 z m -43.9,76.9 -0.1,-60 -29.4,49.5 H 269 l -29.3,-48.2 v 58.7 H 218 v -100 h 19.2 l 37.4,62.2 36.9,-62.2 h 19 l 0.3,100 z" />
      <path d="m 650.6,420.2 -3,-2.9 -3,-3 -45.1,45.1 -7.8,13.8 13.7,-7.8 z m -40.7,87.9 c -0.1,-0.1 -0.1,-0.1 0,0 -0.1,-0.1 -0.1,-0.2 -0.1,-0.3 -2.4,-5.2 -6.3,-9.9 -10.5,-13.7 -6.7,-6.1 -7.7,-12.7 -7.8,-15.2 v -0.2 c 0,0 0,0.1 0,0.1 0,0 0,-0.1 0,-0.1 v 0.2 c -0.1,2.5 -1.2,9.2 -7.8,15.2 -4.2,3.8 -8.1,8.5 -10.5,13.7 0,0.1 -0.1,0.1 -0.1,0.2 0,0 0,0 0,0.1 -1.5,2.9 -2.4,6.2 -2.4,9.7 0,0.1 0,0.3 0,0.4 0.2,11.2 9.3,20.3 20.5,20.4 0.1,0 0.2,0 0.3,0 0.1,0 0.2,0 0.3,0 11.2,-0.2 20.3,-9.2 20.5,-20.4 0,-0.1 0,-0.3 0,-0.4 -0.1,-3.6 -0.9,-6.9 -2.4,-9.7 z m -2.8,16.7 c -1.3,3.5 -4.4,7.6 -11.7,7.4 0,0 11.1,-14.7 0,-33.7 0,0 10.9,5.7 12.5,18.6 0.3,2.5 0.1,5.2 -0.8,7.7 z m 174.5,66.3 h -58.2 c 1,4.8 3.5,8.5 7.4,11.3 3.9,2.8 8.8,4.1 14.6,4.1 4,0 7.6,-0.6 10.6,-1.8 3.1,-1.2 6,-3.1 8.6,-5.6 l 11.9,12.9 c -7.2,8.3 -17.8,12.4 -31.7,12.4 -8.7,0 -16.3,-1.7 -23,-5.1 -6.7,-3.4 -11.8,-8.1 -15.4,-14.1 -3.6,-6 -5.4,-12.8 -5.4,-20.4 0,-7.5 1.8,-14.3 5.4,-20.4 3.6,-6 8.5,-10.8 14.7,-14.1 6.2,-3.4 13.2,-5.1 20.9,-5.1 7.5,0 14.3,1.6 20.4,4.9 6.1,3.2 10.9,7.9 14.4,13.9 3.5,6.1 5.2,13.1 5.2,21.1 0.1,0.3 -0.1,2.3 -0.4,6 z m -52.1,-24.7 c -3.4,2.9 -5.5,6.8 -6.3,11.7 h 37.9 c -0.8,-4.9 -2.9,-8.7 -6.3,-11.6 -3.4,-2.9 -7.6,-4.4 -12.6,-4.4 -5.1,0 -9.3,1.4 -12.7,4.3 z m -91.1,53 c -6.5,-3.4 -11.6,-8.1 -15.3,-14.1 -3.7,-6 -5.5,-12.8 -5.5,-20.4 0,-7.6 1.8,-14.4 5.5,-20.4 3.7,-6 8.8,-10.7 15.3,-14.1 6.5,-3.4 13.9,-5.1 22.1,-5.1 8.1,0 15.2,1.7 21.2,5.1 6.1,3.4 10.5,8.2 13.2,14.5 l -17.3,9.3 c -4,-7.1 -9.8,-10.6 -17.3,-10.6 -5.8,0 -10.6,1.9 -14.4,5.7 -3.8,3.8 -5.7,9 -5.7,15.6 0,6.6 1.9,11.8 5.7,15.6 3.8,3.8 8.6,5.7 14.4,5.7 7.6,0 13.4,-3.5 17.3,-10.6 l 17.3,9.4 c -2.8,6.1 -7.2,10.9 -13.2,14.3 -6.1,3.4 -13.1,5.1 -21.2,5.1 -8.3,0 -15.6,-1.7 -22.1,-5 z m -58.10001,-72.99998 h 22.3 v 76.90001 h -22.3 z M 559.5,546.4 v 76.9 h -21.2 v -9.1 c -3,3.3 -6.5,5.9 -10.6,7.6 -4.1,1.8 -8.5,2.6 -13.3,2.6 -10.1,0 -18.1,-2.9 -24,-8.7 -5.9,-5.8 -8.9,-14.4 -8.9,-25.9 v -43.4 h 22.3 v 40.2 c 0,12.4 5.2,18.6 15.6,18.6 5.3,0 9.6,-1.7 12.9,-5.2 3.2,-3.5 4.9,-8.6 4.9,-15.5 v -38 h 22.3 z m -153.4,74.8 c -5.7,-2.5 -10.3,-6.1 -13.9,-10.8 L 405,595 c 5.4,7.3 11.6,11 18.6,11 9.4,0 14.1,-5.5 14.1,-16.6 v -47.6 h -35.2 v -18.6 h 58.2 v 64.9 c 0,12.3 -3.1,21.5 -9.1,27.7 -6.1,6.1 -15.1,9.2 -26.9,9.2 -6.7,0 -12.9,-1.3 -18.6,-3.8 z M 641,403.9 c 0.9,-0.9 1.6,-1.6 2.4,-2.4 6.6,6.6 13.3,13.3 20,20 -0.8,0.8 -1.5,1.5 -2.4,2.4 -6.6,-6.6 -13.4,-13.4 -20,-20 z m 34.7,-2.4 c -4.1,-4.1 -8.2,-8.2 -12.1,-12.1 4,-4 7.8,-8 11.8,-11.8 4.9,-4.7 12.5,-2.6 14.2,3.9 0.8,3.3 -0.2,6 -2.5,8.4 -3,3 -6,6 -9,9 -0.8,0.6 -1.6,1.6 -2.4,2.6 z m -21.6,9.1 c -3.4,-3.4 -6.7,-6.8 -10.2,-10.1 -1.4,-1.4 -1.4,-2.3 0,-3.7 3.7,-3.6 7.4,-7.3 11,-11 1.3,-1.3 2.3,-1.2 3.5,0 6.8,6.9 13.7,13.8 20.6,20.6 1.3,1.3 1.3,2.3 0,3.5 -3.8,3.7 -7.5,7.4 -11.1,11.1 -1.2,1.2 -2.1,1.2 -3.3,0 -3.5,-3.5 -7,-6.9 -10.5,-10.4 z" style="fill: #000000" />
   </g>
</svg>